<svg xmlns="http://www.w3.org/2000/svg" xmlns:xlink="http://www.w3.org/1999/xlink" width="247" height="119" viewBox="0 0 247 119">
  <defs>
    <clipPath id="clip-Artboard_9">
      <rect width="247" height="119"/>
    </clipPath>
  </defs>
  <g id="Artboard_9" data-name="Artboard – 9" clip-path="url(#clip-Artboard_9)">
    <path id="Union_125" data-name="Union 125" d="M238.068,114v-8.78h-4.413V114h-4.383V92.068h4.383v8.779h4.413V92.068h4.384V114Zm-24.182,0a2.238,2.238,0,0,1-2.207-2.2V94.24a2.186,2.186,0,0,1,2.207-2.172h8.8a2.137,2.137,0,0,1,2.177,2.172v4.4h-4.383v-2.2h-4.414v13.184h4.414v-2.2h4.383V111.8a2.1,2.1,0,0,1-.626,1.548,2.121,2.121,0,0,1-1.551.654Zm-15.416,0h-4.384V92.068h13.18v4.374h-8.8v4.4h6.62v4.375h-6.62v4.4h8.8V114Zm-17.593,0V96.442h-4.383V92.068h13.18v4.374H185.29V114ZM150.1,114V96.442h-4.413V114h-4.383V92.068h11a2.137,2.137,0,0,1,2.177,2.172V114Zm-17.592,0V92.068h4.383V114Zm-32.98,0a2.238,2.238,0,0,1-2.206-2.2V94.24a2.186,2.186,0,0,1,2.206-2.172h8.8a2.137,2.137,0,0,1,2.177,2.172v4.4h-4.383v-2.2h-4.414v13.184h4.414v-4.4h-2.207v-4.375h6.59V111.8a2.1,2.1,0,0,1-.626,1.548,2.121,2.121,0,0,1-1.551.654Zm-11,0V96.442H84.116V114H79.733V92.068h11a2.137,2.137,0,0,1,2.176,2.172V114Zm-17.593,0V92.068H75.32V114Zm-13.209,0H53.344V92.068h11a2.137,2.137,0,0,1,2.177,2.172V111.8a2.1,2.1,0,0,1-.626,1.548,2.121,2.121,0,0,1-1.551.654Zm0-10.982v6.607h4.414V96.442H57.727ZM44.547,114V96.442H40.135V114H35.751V92.068h11A2.135,2.135,0,0,1,48.93,94.24V114Zm-17.593,0v-8.78H22.541V114H18.158V94.24a2.186,2.186,0,0,1,2.206-2.172h8.8a2.137,2.137,0,0,1,2.177,2.172V114Zm-4.413-13.154h4.413v-4.4H22.541ZM4.948,114H.565V92.068H4.948v17.558h8.8V114ZM0,90.3V86.912H242.5V90.3ZM123.1,75.625a1,1,0,0,1-1-1V74.5h-1.13v.129a1,1,0,0,1-1,1h-.261a1,1,0,0,1-1-1V72.11a1,1,0,0,1,1-1h.261a.994.994,0,0,1,.661.25v-3.4a18.654,18.654,0,0,1-12.645-5.675q-.427-.437-.824-.9c-1.98-.2-6.718-.687-13.1-1.36v3.544a1,1,0,0,1,.774-.366H95.1a1,1,0,0,1,1,1v2.515a1,1,0,0,1-1,1h-.261a1,1,0,0,1-1-1v-.129h-1.13v.129a1,1,0,0,1-1,1h-.261a1,1,0,0,1-1-1V64.209a1,1,0,0,1,1-1h.261a1,1,0,0,1,.661.25V59.852c-2.965-.314-6.234-.663-9.713-1.04a8.89,8.89,0,0,1,.711,10.705,8.751,8.751,0,0,1-1.039,1.292,8.624,8.624,0,0,1-1.26,1.067,8.49,8.49,0,0,1-1.446.806,8.345,8.345,0,0,1-6.626,0,8.516,8.516,0,0,1-1.445-.806,8.689,8.689,0,0,1-2.3-2.359,8.823,8.823,0,0,1,2.056-11.951c-8.17-.911-16.829-1.907-25-2.9-19.658-2.4-36.473-4.8-44.8-6.031-3.511-.518.95-1.462.95-1.462l99.988,2.356q-.023-.486-.023-.976a19.971,19.971,0,0,1,.638-5.028c-3.847-.4-13.4-1.4-21.627-2.4-7.423-.906-13.773-1.814-16.916-2.278-1.327-.2.358-.552.358-.552l39.863.94a19.488,19.488,0,0,1,3.244-4.422,18.7,18.7,0,0,1,10.634-5.485L121.192,0l2.568,29.259a18.679,18.679,0,0,1,11.076,5.546,19.469,19.469,0,0,1,3.241,4.413l39.488-.931s1.684.355.358.552c-3.144.464-9.494,1.372-16.916,2.278-7.979.973-17.2,1.944-21.257,2.364a19.975,19.975,0,0,1,.648,5.066q0,.487-.023.971l99.782-2.351s4.461.944.949,1.461c-8.326,1.229-25.141,3.633-44.8,6.033-8.022.979-16.52,1.957-24.561,2.854a8.8,8.8,0,0,1,3.581,7.117,8.515,8.515,0,1,1-17.023,0,8.824,8.824,0,0,1,2.227-5.882c-3.558.386-6.907.744-9.942,1.066v3.195a1,1,0,0,1,.774-.366h.261a1,1,0,0,1,1,1V66.16a1,1,0,0,1-1,1h-.261a1,1,0,0,1-1-1v-.129h-1.13v.129a1,1,0,0,1-1,1h-.261a1,1,0,0,1-1-1V63.645a1,1,0,0,1,1-1h.261a1,1,0,0,1,.662.25V60c-6.32.668-11.076,1.155-13.213,1.373q-.406.472-.844.921a18.649,18.649,0,0,1-12.511,5.669v3.518a1,1,0,0,1,.774-.366h.261a1,1,0,0,1,1,1v2.515a1,1,0,0,1-1,1Zm38.551-10.192a5.166,5.166,0,1,0,5.166-5.167A5.172,5.172,0,0,0,161.651,65.434ZM74.3,60.672a5.193,5.193,0,1,0,2.011-.405A5.147,5.147,0,0,0,74.3,60.672Zm36.225-19.595a2.323,2.323,0,0,0-.887,1.688,3.154,3.154,0,0,0,.887,2.041l8.009.152h6.09l7.953-.153a3.134,3.134,0,0,0,.886-2.041,2.323,2.323,0,0,0-.886-1.688,19.587,19.587,0,0,0-7.61-3.273,15.211,15.211,0,0,0-3.165-.22,20.032,20.032,0,0,0-3.323.2h-.047A18.965,18.965,0,0,0,110.522,41.077Z" transform="translate(2 0.998)" fill="#fc354c"/>
  </g>
</svg>
