<svg xmlns="http://www.w3.org/2000/svg" xmlns:xlink="http://www.w3.org/1999/xlink" width="24" height="24" viewBox="0 0 24 24">
  <defs>
    <clipPath id="clip-apple">
      <rect width="24" height="24"/>
    </clipPath>
  </defs>
  <g id="apple" clip-path="url(#clip-apple)">
    <path id="apple-brands" d="M20.722,44.577a4.96,4.96,0,0,1,2.657-4.506,5.709,5.709,0,0,0-4.5-2.37c-1.886-.149-3.948,1.1-4.7,1.1-.8,0-2.625-1.047-4.06-1.047C7.151,37.8,4,40.119,4,44.832a13.243,13.243,0,0,0,.765,4.315c.68,1.95,3.135,6.732,5.7,6.652,1.339-.032,2.285-.951,4.028-.951,1.69,0,2.566.951,4.06.951,2.582-.037,4.8-4.384,5.452-6.339A5.267,5.267,0,0,1,20.722,44.577Zm-3.007-8.725A5,5,0,0,0,18.989,32a5.634,5.634,0,0,0-3.608,1.854,5.083,5.083,0,0,0-1.36,3.82A4.463,4.463,0,0,0,17.714,35.852Z" transform="translate(-2 -32)" fill="#0efb69"/>
  </g>
</svg>
