<svg xmlns="http://www.w3.org/2000/svg" xmlns:xlink="http://www.w3.org/1999/xlink" width="17" height="16" viewBox="0 0 17 16">
  <defs>
    <clipPath id="clip-plane">
      <rect width="17" height="16"/>
    </clipPath>
  </defs>
  <g id="plane" clip-path="url(#clip-plane)">
    <g id="Layer_3" transform="translate(-725.82 -1049.282)">
      <path id="Path_34" data-name="Path 34" d="M28.912,275.563c-.485-.536-2.349-.315-3.663.762-.358.293-.983.914-1.772,1.738l-1.867-.522.085-.086a.3.3,0,0,0,0-.425l-.753-.744a.3.3,0,0,0-.425,0l-.733.742-5.662-1.582a.157.157,0,0,0-.136.025l-.637.467a.158.158,0,0,0,0,.258l7.244,4.958c-1.265,1.381-2.624,2.881-3.889,4.273l-3.569-.133a.063.063,0,0,0-.05.022l-.25.283a.064.064,0,0,0,.02.1l3.031,1.44.035.032c.067.088.134.175.2.263l1.424,2.964a.064.064,0,0,0,.1.02l.282-.252a.064.064,0,0,0,.021-.051l-.148-3.553,4.56-3.451,4.206,7.7a.158.158,0,0,0,.257.03l.528-.587a.162.162,0,0,0,.039-.134l-1.012-5.814.814-.694a.3.3,0,0,0,.033-.424l-.687-.806a.3.3,0,0,0-.424-.033l-.066.056-.322-1.85c.939-.716,1.633-1.251,1.861-1.439C28.557,278.323,29.4,276.1,28.912,275.563Zm-.654,2.207a2.016,2.016,0,0,0-.716-1.32,1.671,1.671,0,0,0-1.039-.556l.016-.005c.137-.045,1.206-.377,1.717.188A1.552,1.552,0,0,1,28.258,277.77Z" transform="translate(713 774.036)" fill="#0efb69"/>
    </g>
  </g>
</svg>
