<svg xmlns="http://www.w3.org/2000/svg" xmlns:xlink="http://www.w3.org/1999/xlink" width="24" height="24" viewBox="0 0 24 24">
  <defs>
    <clipPath id="clip-rss">
      <rect width="24" height="24"/>
    </clipPath>
  </defs>
  <g id="rss" clip-path="url(#clip-rss)">
    <path id="rss-solid" d="M5.718,49.141a2.859,2.859,0,1,1-2.859-2.859,2.859,2.859,0,0,1,2.859,2.859ZM13.56,51.25A13.575,13.575,0,0,0,.75,38.44a.714.714,0,0,0-.75.714V41.3a.715.715,0,0,0,.665.715,10,10,0,0,1,9.32,9.32A.715.715,0,0,0,10.7,52h2.146A.714.714,0,0,0,13.56,51.25Zm6.44.013A20.014,20.014,0,0,0,.737,32,.714.714,0,0,0,0,32.715v2.146a.716.716,0,0,0,.69.714A16.431,16.431,0,0,1,16.425,51.31a.716.716,0,0,0,.714.69h2.146A.714.714,0,0,0,20,51.263Z" transform="translate(1.945 -30.108)" fill="#0efb69"/>
  </g>
</svg>
