<svg xmlns="http://www.w3.org/2000/svg" xmlns:xlink="http://www.w3.org/1999/xlink" width="24" height="24" viewBox="0 0 24 24">
  <defs>
    <clipPath id="clip-spotify">
      <rect width="24" height="24"/>
    </clipPath>
  </defs>
  <g id="spotify" clip-path="url(#clip-spotify)">
    <path id="spotify-brands" d="M10,8A10,10,0,1,0,20,18,10,10,0,0,0,10,8Zm4.06,14.714a.769.769,0,0,1-.431-.145,11.381,11.381,0,0,0-8.335-.988,2.6,2.6,0,0,1-.48.1.628.628,0,0,1-.637-.637.639.639,0,0,1,.548-.677c3.3-.73,6.677-.665,9.556,1.056a.682.682,0,0,1,.391.665.609.609,0,0,1-.613.621Zm1.085-2.645a1,1,0,0,1-.5-.169,13.067,13.067,0,0,0-9.621-1.185,1.661,1.661,0,0,1-.48.1.783.783,0,0,1-.782-.782.793.793,0,0,1,.625-.835,13.563,13.563,0,0,1,3.944-.548,14.115,14.115,0,0,1,7.137,1.835.841.841,0,0,1,.456.794A.781.781,0,0,1,15.145,20.069ZM16.4,17a.927.927,0,0,1-.52-.157c-2.871-1.714-8-2.125-11.327-1.2a1.915,1.915,0,0,1-.52.1.931.931,0,0,1-.94-.952.953.953,0,0,1,.7-.964,16.9,16.9,0,0,1,4.738-.613,17.03,17.03,0,0,1,8.282,1.927.947.947,0,0,1,.52.911A.934.934,0,0,1,16.4,17Z" transform="translate(2 -6)" fill="#0efb69"/>
  </g>
</svg>
