<svg xmlns="http://www.w3.org/2000/svg" xmlns:xlink="http://www.w3.org/1999/xlink" width="50" height="50" viewBox="0 0 50 50">
  <defs>
    <clipPath id="clip-youtube">
      <rect width="50" height="50"/>
    </clipPath>
  </defs>
  <g id="youtube" clip-path="url(#clip-youtube)">
    <path id="youtube-brands" d="M63.888,69.5a6.283,6.283,0,0,0-4.421-4.449C55.568,64,39.933,64,39.933,64S24.3,64,20.4,65.052A6.283,6.283,0,0,0,15.978,69.5c-1.045,3.925-1.045,12.113-1.045,12.113s0,8.188,1.045,12.113A6.189,6.189,0,0,0,20.4,98.1c3.9,1.052,19.535,1.052,19.535,1.052s15.635,0,19.535-1.052a6.189,6.189,0,0,0,4.421-4.378c1.045-3.925,1.045-12.113,1.045-12.113S64.933,73.425,63.888,69.5ZM34.819,89.048V74.179l13.068,7.435L34.819,89.048Z" transform="translate(-14.933 -57)" fill="#f7334b"/>
  </g>
</svg>
